HIERARCHY
ROOT hip
{
	OFFSET 0.000000 0.000000 0.000000 
	CHANNELS 6 Xposition Yposition Zposition Xrotation Zrotation Yrotation
	JOINT abdomen
	{
		OFFSET 0.000000 3.402643 0.000000 
		CHANNELS 3 Xrotation Zrotation Yrotation
		JOINT chest
		{
			OFFSET 0.000000 8.438565 -0.680529 
			CHANNELS 3 Xrotation Zrotation Yrotation
			JOINT neck
			{
				OFFSET 0.000000 10.207942 -0.272212 
				CHANNELS 3 Xrotation Zrotation Yrotation
				JOINT head
				{
					OFFSET 0.000000 3.130431 0.000000 
					CHANNELS 3 Xrotation Zrotation Yrotation
					End Site
					{
						OFFSET 0.000000 3.130435 0.000000 
					}
				}
			}
			JOINT lCollar
			{
				OFFSET 3.470700 6.669187 -0.816635 
				CHANNELS 3 Yrotation Zrotation Xrotation
				JOINT lShldr
				{
					OFFSET 3.198488 0.000000 0.000000 
					CHANNELS 3 Zrotation Yrotation Xrotation
					JOINT lForeArm
					{
						OFFSET 10.139888 0.000000 0.000000 
						CHANNELS 3 Yrotation Zrotation Xrotation
						JOINT lHand
						{
							OFFSET 8.370511 0.000000 0.000000 
							CHANNELS 3 Zrotation Yrotation Xrotation
							End Site
							{
								OFFSET 4.083176 0.000000 0.000000 
							}
						}
					}
				}
			}
			JOINT rCollar
			{
				OFFSET -3.470700 6.669187 -0.816635 
				CHANNELS 3 Yrotation Zrotation Xrotation
				JOINT rShldr
				{
					OFFSET -3.198488 0.000000 0.000000 
					CHANNELS 3 Zrotation Yrotation Xrotation
					JOINT rForeArm
					{
						OFFSET -10.139888 0.000000 0.000000 
						CHANNELS 3 Yrotation Zrotation Xrotation
						JOINT rHand
						{
							OFFSET -8.370511 0.000000 0.000000 
							CHANNELS 3 Zrotation Yrotation Xrotation
							End Site
							{
								OFFSET -4.083176 0.000000 0.000000 
							}
						}
					}
				}
			}
		}
	}
	JOINT lThigh
	{
		OFFSET 5.308129 -1.633274 1.361059 
		CHANNELS 3 Xrotation Zrotation Yrotation
		JOINT lShin
		{
			OFFSET -2.041588 -20.007561 0.000000 
			CHANNELS 3 Xrotation Zrotation Yrotation
			JOINT lFoot
			{
				OFFSET 0.000000 -19.190928 -1.224953 
				CHANNELS 3 Xrotation Yrotation Zrotation
				End Site
				{
					OFFSET 0.000000 -2.449906 4.627600 
				}
			}
		}
	}
	JOINT rThigh
	{
		OFFSET -5.308129 -1.633274 1.361059 
		CHANNELS 3 Xrotation Zrotation Yrotation
		JOINT rShin
		{
			OFFSET 2.041588 -20.007561 0.000000 
			CHANNELS 3 Xrotation Zrotation Yrotation
			JOINT rFoot
			{
				OFFSET 0.000000 -19.190928 -1.224953 
				CHANNELS 3 Xrotation Yrotation Zrotation
				End Site
				{
					OFFSET 0.000000 -2.449906 4.627600 
				}
			}
		}
	}
}
MOTION
Frames: 11
Frame Time: 0.033333
-91.796692 43.932247 0.000000 179.990234 179.990234 0.527345 20.722656 -0.537109 -0.322266 0.000000 0.000000 0.000000 -27.861326 7.304688 -32.020241 5.585938 2.041015 -0.224609 -2.822266 -0.097656 -0.019515 -54.355469 -11.435547 -22.316389 -0.693359 -5.957031 6.036170 3.398438 -0.849609 -6.162237 2.792969 0.068359 -0.019531 45.693359 23.759768 -73.310547 79.433594 1.777344 4.121093 -2.226563 3.271485 -5.429129 -27.536982 18.719324 0.509801 50.838100 -2.737959 -3.293712 -24.070910 0.158599 -12.974305 -31.712543 -20.740574 18.985304 48.522312 2.785513 3.859329 -15.092927 0.038557 25.227343 
-91.796692 43.758564 0.000000 179.990234 179.990234 0.527345 20.722656 -0.537109 -0.322266 0.000000 0.000000 0.000000 -27.861326 7.304688 -32.020241 5.585938 2.041015 -0.224609 -2.822266 -0.097656 -0.019515 -54.179688 -11.396484 -22.355444 -0.693359 -5.957031 6.036170 3.398438 -0.849609 -6.162237 2.792969 0.068359 -0.019531 43.984371 24.267578 -74.082031 76.796875 1.835938 4.120780 -2.412109 5.195312 -5.438568 -28.176752 18.686939 0.607644 51.910683 -2.386426 -3.346817 -24.634277 0.425714 -13.021022 -31.712543 -20.740574 18.985304 49.216187 2.785491 3.920176 -16.019194 -0.375805 25.285378 
-91.796692 43.584892 0.000000 179.990234 179.990234 0.527345 20.722656 -0.537109 -0.322266 0.000000 0.000000 0.000000 -27.861326 7.304688 -32.020241 5.585938 2.041015 -0.224609 -2.822266 -0.097656 -0.019515 -54.003906 -11.367188 -22.423803 -0.693359 -5.957031 6.036170 3.398438 -0.849609 -6.162237 2.792969 0.068359 -0.019531 42.089844 24.716799 -74.960938 74.160156 1.884766 4.120773 -2.597656 7.119140 -5.458984 -28.601820 18.729374 0.578678 53.146759 -2.386591 -3.300431 -25.164124 0.472380 -13.025777 -31.712543 -20.740574 18.985304 49.925003 2.795103 4.102967 -17.027363 -0.752516 24.969328 
-91.796692 43.411209 0.000000 179.990234 179.990234 0.527345 20.722656 -0.537109 -0.322266 0.000000 0.000000 0.000000 -27.861326 7.304688 -32.020241 5.585938 2.041015 -0.224609 -2.822266 -0.097656 -0.019515 -53.837891 -11.318358 -22.462854 -0.693359 -5.957031 6.036170 3.398438 -0.849609 -6.162237 2.792969 0.068359 -0.019531 40.419922 25.029299 -75.542740 71.533203 1.953125 4.121094 -2.783203 9.052734 -5.486743 -29.023294 18.769455 0.373225 54.202007 -2.396797 -3.372270 -25.741512 0.773398 -12.864243 -31.712543 -20.740574 18.985304 50.633778 2.619350 4.125078 -17.772310 -1.427017 25.075405 
-91.796692 43.223072 0.000000 179.990234 179.990234 0.527345 20.722656 -0.537109 -0.322266 0.000000 0.000000 0.000000 -27.861326 7.304688 -32.020241 5.585938 2.041015 -0.224609 -2.822266 -0.097656 -0.019515 -53.837891 -11.318358 -22.462854 -0.693359 -5.957031 6.036170 3.398438 -0.849609 -6.162237 2.792969 0.068359 -0.019531 38.515625 25.439455 -76.386719 68.720703 2.011719 4.120750 -2.958984 10.976657 -5.496237 -29.478411 18.737772 0.147704 55.414646 -2.367615 -3.436887 -26.297939 0.801378 -12.857298 -31.712543 -20.740574 18.985304 51.168976 2.619113 3.961038 -18.678768 -1.579763 25.443649 
-91.796692 43.034920 0.000000 179.990234 179.990234 0.527345 20.722656 -0.537109 -0.322266 0.000000 0.000000 0.000000 -27.861326 7.304688 -32.020241 5.585938 2.041015 -0.224609 -2.822266 -0.097656 -0.019515 -53.701172 -11.123048 -22.511650 -0.693359 -5.957031 6.036170 3.398438 -0.849609 -6.162237 2.792969 0.068359 -0.019531 36.796875 25.898438 -77.193001 66.083984 2.070312 4.130507 -3.144531 12.714844 -5.537110 -29.738480 18.667305 0.086528 56.492565 -2.239225 -3.450485 -26.807354 0.730779 -12.913642 -31.712543 -20.740572 18.985304 51.872005 2.619103 4.032108 -19.636784 -2.200427 25.182825 
-91.796692 42.846767 0.000000 179.990234 179.990234 0.527345 20.722656 -0.537109 -0.322266 0.000000 0.000000 0.000000 -27.861326 7.304688 -32.020241 5.585938 2.041015 -0.224609 -2.822266 -0.097656 -0.019515 -53.515625 -11.083984 -22.570236 -0.693359 -5.957031 6.036170 3.398438 -0.849609 -6.162237 2.792969 0.068359 -0.019531 34.873047 26.308594 -78.198792 63.447266 2.138672 4.140261 -3.320313 14.472657 -5.583496 -30.350235 18.720001 0.046282 57.531891 -2.034122 -3.438512 -27.362831 0.976669 -12.999561 -31.712543 -20.740574 18.985304 52.575356 2.619105 4.093812 -20.778269 -2.538721 25.251406 
-91.796692 42.723747 0.000000 179.990234 179.990234 0.527345 20.722656 -0.537109 -0.322266 0.000000 0.000000 0.000000 -27.861326 7.304688 -32.020241 5.585938 2.041015 -0.224609 -2.822266 -0.097656 -0.019515 -52.148438 -10.605469 -22.784998 -0.693359 -5.957031 6.036170 3.398438 -0.849609 -6.162237 2.792969 0.068359 -0.019531 32.783203 26.630857 -79.058121 64.150391 2.119141 4.140264 -3.222656 13.593750 -5.576172 -30.736528 18.756496 0.018056 58.421402 -2.044341 -3.478486 -27.709366 0.937797 -13.039838 -31.712543 -20.740574 18.985304 52.926514 2.443306 4.210765 -21.218430 -2.640670 25.019243 
-91.796692 42.600723 0.000000 179.990234 179.990234 0.527345 20.722656 -0.537109 -0.322266 0.000000 0.000000 0.000000 -27.861326 7.304688 -32.020241 5.585938 2.041015 -0.224609 -2.822266 -0.097656 -0.019515 -52.685547 -10.732421 -22.628769 -0.693359 -5.957031 6.036170 3.398438 -0.849609 -6.162237 2.792969 0.068359 -0.019531 32.177734 26.650389 -79.351089 64.667969 2.109375 4.150032 -3.144531 12.714844 -5.537110 -31.014975 18.710579 -0.378353 59.119583 -2.241292 -3.654628 -28.086292 1.253827 -12.825513 -31.712543 -20.740574 18.985304 53.454514 2.443236 4.239402 -21.754261 -3.294059 24.842281 
-91.796692 42.463226 0.000000 179.990234 179.990234 0.527345 20.722656 -0.537109 -0.322266 0.000000 0.000000 0.000000 -27.861326 7.304688 -32.020241 5.585938 2.041015 -0.224609 -2.822266 -0.097656 -0.019515 -52.988281 -10.966797 -22.716702 -0.693359 -5.957031 6.036170 3.398438 -0.849609 -6.162237 2.792969 0.068359 -0.019531 32.607422 26.582031 -79.097191 65.195313 2.099609 4.140625 -3.056641 11.855470 -5.546875 -31.203016 18.726030 -0.393093 59.820019 -2.396256 -3.772938 -28.332886 1.521682 -12.648740 -31.712543 -20.740572 18.985304 53.813599 2.433318 4.067492 -22.419146 -3.259240 25.125263 
-91.796692 42.325737 0.000000 179.990234 179.990234 0.527345 20.722656 -0.537109 -0.322266 0.000000 0.000000 0.000000 -27.861326 7.304688 -32.020241 5.585938 2.041015 -0.224609 -2.822266 -0.097656 -0.019515 -53.515625 -11.083984 -22.570236 -0.693359 -5.957031 6.036170 3.398438 -0.849609 -6.162237 2.792969 0.068359 -0.019531 32.832031 26.464846 -79.058151 65.732422 2.089844 4.130503 -2.958985 10.800781 -5.507812 -31.625870 18.757032 -0.431454 60.530529 -2.015343 -3.634688 -28.822332 1.421440 -12.954371 -31.712543 -20.740574 18.985302 54.335300 2.443073 4.264962 -23.224304 -3.670832 24.897558 
